<mxfile host="Electron" modified="2023-06-19T12:05:06.417Z" agent="Mozilla/5.0 (Windows NT 10.0; Win64; x64) AppleWebKit/537.36 (KHTML, like Gecko) draw.io/21.2.8 Chrome/112.0.5615.165 Electron/24.2.0 Safari/537.36" etag="IgTNkInMt36ea7sF-JSe" version="21.2.8" type="device">
  <diagram id="R2lEEEUBdFMjLlhIrx00" name="Page-1">
    <mxGraphModel dx="2418" dy="1073" grid="1" gridSize="10" guides="1" tooltips="1" connect="1" arrows="1" fold="1" page="1" pageScale="1" pageWidth="850" pageHeight="1100" math="0" shadow="0" extFonts="Permanent Marker^https://fonts.googleapis.com/css?family=Permanent+Marker">
      <root>
        <mxCell id="0" />
        <mxCell id="1" parent="0" />
        <mxCell id="tw4gPYHvXtGm7aBOc0MK-12" style="edgeStyle=orthogonalEdgeStyle;rounded=0;orthogonalLoop=1;jettySize=auto;html=1;exitX=0.5;exitY=0;exitDx=0;exitDy=0;entryX=1;entryY=0.5;entryDx=0;entryDy=0;" edge="1" parent="1" source="tw4gPYHvXtGm7aBOc0MK-2" target="tw4gPYHvXtGm7aBOc0MK-9">
          <mxGeometry relative="1" as="geometry">
            <Array as="points">
              <mxPoint x="-220" y="580" />
              <mxPoint x="-220" y="380" />
            </Array>
          </mxGeometry>
        </mxCell>
        <mxCell id="tw4gPYHvXtGm7aBOc0MK-13" style="edgeStyle=orthogonalEdgeStyle;rounded=0;orthogonalLoop=1;jettySize=auto;html=1;exitX=0.75;exitY=0;exitDx=0;exitDy=0;entryX=0;entryY=0.5;entryDx=0;entryDy=0;" edge="1" parent="1" source="tw4gPYHvXtGm7aBOc0MK-2" target="tw4gPYHvXtGm7aBOc0MK-4">
          <mxGeometry relative="1" as="geometry" />
        </mxCell>
        <mxCell id="tw4gPYHvXtGm7aBOc0MK-16" style="edgeStyle=orthogonalEdgeStyle;rounded=0;orthogonalLoop=1;jettySize=auto;html=1;entryX=1;entryY=0.5;entryDx=0;entryDy=0;" edge="1" parent="1" source="tw4gPYHvXtGm7aBOc0MK-2" target="tw4gPYHvXtGm7aBOc0MK-6">
          <mxGeometry relative="1" as="geometry" />
        </mxCell>
        <mxCell id="tw4gPYHvXtGm7aBOc0MK-18" style="edgeStyle=orthogonalEdgeStyle;rounded=0;orthogonalLoop=1;jettySize=auto;html=1;entryX=0;entryY=0.5;entryDx=0;entryDy=0;" edge="1" parent="1" source="tw4gPYHvXtGm7aBOc0MK-2" target="tw4gPYHvXtGm7aBOc0MK-11">
          <mxGeometry relative="1" as="geometry" />
        </mxCell>
        <mxCell id="tw4gPYHvXtGm7aBOc0MK-2" value="clase" style="rounded=0;whiteSpace=wrap;html=1;fillColor=#f5f5f5;strokeColor=#666666;fontColor=#333333;" vertex="1" parent="1">
          <mxGeometry x="-280" y="580" width="180" height="80" as="geometry" />
        </mxCell>
        <mxCell id="tw4gPYHvXtGm7aBOc0MK-3" value="cliente" style="rounded=0;whiteSpace=wrap;html=1;fillColor=#f5f5f5;strokeColor=#666666;fontColor=#333333;" vertex="1" parent="1">
          <mxGeometry x="80" y="400" width="180" height="80" as="geometry" />
        </mxCell>
        <mxCell id="tw4gPYHvXtGm7aBOc0MK-15" style="edgeStyle=orthogonalEdgeStyle;rounded=0;orthogonalLoop=1;jettySize=auto;html=1;entryX=0;entryY=0.5;entryDx=0;entryDy=0;" edge="1" parent="1" source="tw4gPYHvXtGm7aBOc0MK-4" target="tw4gPYHvXtGm7aBOc0MK-3">
          <mxGeometry relative="1" as="geometry" />
        </mxCell>
        <mxCell id="tw4gPYHvXtGm7aBOc0MK-4" value="tiene" style="rhombus;whiteSpace=wrap;html=1;fillColor=#f5f5f5;strokeColor=#666666;fontColor=#333333;" vertex="1" parent="1">
          <mxGeometry x="-90" y="400" width="80" height="80" as="geometry" />
        </mxCell>
        <mxCell id="tw4gPYHvXtGm7aBOc0MK-26" style="edgeStyle=orthogonalEdgeStyle;rounded=0;orthogonalLoop=1;jettySize=auto;html=1;entryX=0.5;entryY=0;entryDx=0;entryDy=0;" edge="1" parent="1" source="tw4gPYHvXtGm7aBOc0MK-5" target="tw4gPYHvXtGm7aBOc0MK-24">
          <mxGeometry relative="1" as="geometry" />
        </mxCell>
        <mxCell id="tw4gPYHvXtGm7aBOc0MK-31" style="edgeStyle=orthogonalEdgeStyle;rounded=0;orthogonalLoop=1;jettySize=auto;html=1;entryX=0.5;entryY=1;entryDx=0;entryDy=0;" edge="1" parent="1" source="tw4gPYHvXtGm7aBOc0MK-5" target="tw4gPYHvXtGm7aBOc0MK-29">
          <mxGeometry relative="1" as="geometry" />
        </mxCell>
        <mxCell id="tw4gPYHvXtGm7aBOc0MK-37" style="edgeStyle=orthogonalEdgeStyle;rounded=0;orthogonalLoop=1;jettySize=auto;html=1;exitX=0.75;exitY=0;exitDx=0;exitDy=0;entryX=0.5;entryY=1;entryDx=0;entryDy=0;" edge="1" parent="1" source="tw4gPYHvXtGm7aBOc0MK-5" target="tw4gPYHvXtGm7aBOc0MK-34">
          <mxGeometry relative="1" as="geometry">
            <mxPoint x="-150" y="270" as="targetPoint" />
          </mxGeometry>
        </mxCell>
        <mxCell id="tw4gPYHvXtGm7aBOc0MK-5" value="tipo clase" style="rounded=0;whiteSpace=wrap;html=1;fillColor=#f5f5f5;strokeColor=#666666;fontColor=#333333;" vertex="1" parent="1">
          <mxGeometry x="-660" y="340" width="180" height="80" as="geometry" />
        </mxCell>
        <mxCell id="tw4gPYHvXtGm7aBOc0MK-17" style="edgeStyle=orthogonalEdgeStyle;rounded=0;orthogonalLoop=1;jettySize=auto;html=1;entryX=1;entryY=0.5;entryDx=0;entryDy=0;" edge="1" parent="1" source="tw4gPYHvXtGm7aBOc0MK-6" target="tw4gPYHvXtGm7aBOc0MK-8">
          <mxGeometry relative="1" as="geometry" />
        </mxCell>
        <mxCell id="tw4gPYHvXtGm7aBOc0MK-6" value="tiene" style="rhombus;whiteSpace=wrap;html=1;fillColor=#f5f5f5;strokeColor=#666666;fontColor=#333333;" vertex="1" parent="1">
          <mxGeometry x="-410" y="660" width="80" height="80" as="geometry" />
        </mxCell>
        <mxCell id="tw4gPYHvXtGm7aBOc0MK-43" style="edgeStyle=orthogonalEdgeStyle;rounded=0;orthogonalLoop=1;jettySize=auto;html=1;entryX=0;entryY=0.5;entryDx=0;entryDy=0;" edge="1" parent="1" source="tw4gPYHvXtGm7aBOc0MK-8" target="tw4gPYHvXtGm7aBOc0MK-41">
          <mxGeometry relative="1" as="geometry">
            <Array as="points">
              <mxPoint x="-570" y="780" />
            </Array>
          </mxGeometry>
        </mxCell>
        <mxCell id="tw4gPYHvXtGm7aBOc0MK-48" style="edgeStyle=orthogonalEdgeStyle;rounded=0;orthogonalLoop=1;jettySize=auto;html=1;exitX=0.25;exitY=1;exitDx=0;exitDy=0;entryX=0;entryY=0.5;entryDx=0;entryDy=0;" edge="1" parent="1" source="tw4gPYHvXtGm7aBOc0MK-8" target="tw4gPYHvXtGm7aBOc0MK-47">
          <mxGeometry relative="1" as="geometry" />
        </mxCell>
        <mxCell id="tw4gPYHvXtGm7aBOc0MK-8" value="profesores" style="rounded=0;whiteSpace=wrap;html=1;fillColor=#f5f5f5;strokeColor=#666666;fontColor=#333333;" vertex="1" parent="1">
          <mxGeometry x="-660" y="660" width="180" height="80" as="geometry" />
        </mxCell>
        <mxCell id="tw4gPYHvXtGm7aBOc0MK-14" style="edgeStyle=orthogonalEdgeStyle;rounded=0;orthogonalLoop=1;jettySize=auto;html=1;entryX=1;entryY=0.5;entryDx=0;entryDy=0;" edge="1" parent="1" source="tw4gPYHvXtGm7aBOc0MK-9" target="tw4gPYHvXtGm7aBOc0MK-5">
          <mxGeometry relative="1" as="geometry" />
        </mxCell>
        <mxCell id="tw4gPYHvXtGm7aBOc0MK-9" value="tiene" style="rhombus;whiteSpace=wrap;html=1;fillColor=#f5f5f5;strokeColor=#666666;fontColor=#333333;" vertex="1" parent="1">
          <mxGeometry x="-400" y="340" width="80" height="80" as="geometry" />
        </mxCell>
        <mxCell id="tw4gPYHvXtGm7aBOc0MK-39" style="edgeStyle=orthogonalEdgeStyle;rounded=0;orthogonalLoop=1;jettySize=auto;html=1;entryX=1;entryY=0.5;entryDx=0;entryDy=0;" edge="1" parent="1" source="tw4gPYHvXtGm7aBOc0MK-10" target="tw4gPYHvXtGm7aBOc0MK-38">
          <mxGeometry relative="1" as="geometry">
            <mxPoint x="310" y="220" as="targetPoint" />
            <Array as="points">
              <mxPoint x="310" y="780" />
              <mxPoint x="310" y="220" />
            </Array>
          </mxGeometry>
        </mxCell>
        <mxCell id="tw4gPYHvXtGm7aBOc0MK-10" value="Sucursales" style="rounded=0;whiteSpace=wrap;html=1;fillColor=#f5f5f5;strokeColor=#666666;fontColor=#333333;" vertex="1" parent="1">
          <mxGeometry x="100" y="740" width="180" height="80" as="geometry" />
        </mxCell>
        <mxCell id="tw4gPYHvXtGm7aBOc0MK-21" style="edgeStyle=orthogonalEdgeStyle;rounded=0;orthogonalLoop=1;jettySize=auto;html=1;entryX=0;entryY=0.5;entryDx=0;entryDy=0;" edge="1" parent="1" source="tw4gPYHvXtGm7aBOc0MK-11" target="tw4gPYHvXtGm7aBOc0MK-20">
          <mxGeometry relative="1" as="geometry" />
        </mxCell>
        <mxCell id="tw4gPYHvXtGm7aBOc0MK-11" value="disponen" style="rhombus;whiteSpace=wrap;html=1;fillColor=#f5f5f5;strokeColor=#666666;fontColor=#333333;" vertex="1" parent="1">
          <mxGeometry x="-40" y="580" width="80" height="80" as="geometry" />
        </mxCell>
        <mxCell id="tw4gPYHvXtGm7aBOc0MK-22" style="edgeStyle=orthogonalEdgeStyle;rounded=0;orthogonalLoop=1;jettySize=auto;html=1;entryX=0.5;entryY=0;entryDx=0;entryDy=0;" edge="1" parent="1" source="tw4gPYHvXtGm7aBOc0MK-20" target="tw4gPYHvXtGm7aBOc0MK-10">
          <mxGeometry relative="1" as="geometry" />
        </mxCell>
        <mxCell id="tw4gPYHvXtGm7aBOc0MK-20" value="Sucursales/clases" style="rounded=0;whiteSpace=wrap;html=1;fillColor=#f5f5f5;fontColor=#333333;strokeColor=#666666;" vertex="1" parent="1">
          <mxGeometry x="100" y="580" width="180" height="80" as="geometry" />
        </mxCell>
        <mxCell id="tw4gPYHvXtGm7aBOc0MK-25" style="edgeStyle=orthogonalEdgeStyle;rounded=0;orthogonalLoop=1;jettySize=auto;html=1;entryX=0.461;entryY=-0.006;entryDx=0;entryDy=0;entryPerimeter=0;" edge="1" parent="1" source="tw4gPYHvXtGm7aBOc0MK-23" target="tw4gPYHvXtGm7aBOc0MK-8">
          <mxGeometry relative="1" as="geometry" />
        </mxCell>
        <mxCell id="tw4gPYHvXtGm7aBOc0MK-23" value="tipo clase/Profesores" style="rounded=0;whiteSpace=wrap;html=1;fillColor=#f5f5f5;strokeColor=#666666;fontColor=#333333;" vertex="1" parent="1">
          <mxGeometry x="-490" y="490" width="180" height="80" as="geometry" />
        </mxCell>
        <mxCell id="tw4gPYHvXtGm7aBOc0MK-27" style="edgeStyle=orthogonalEdgeStyle;rounded=0;orthogonalLoop=1;jettySize=auto;html=1;entryX=0;entryY=0.5;entryDx=0;entryDy=0;" edge="1" parent="1" source="tw4gPYHvXtGm7aBOc0MK-24" target="tw4gPYHvXtGm7aBOc0MK-23">
          <mxGeometry relative="1" as="geometry" />
        </mxCell>
        <mxCell id="tw4gPYHvXtGm7aBOc0MK-24" value="la da&amp;nbsp;" style="rhombus;whiteSpace=wrap;html=1;fillColor=#f5f5f5;strokeColor=#666666;fontColor=#333333;" vertex="1" parent="1">
          <mxGeometry x="-610" y="490" width="80" height="80" as="geometry" />
        </mxCell>
        <mxCell id="tw4gPYHvXtGm7aBOc0MK-28" value="ejercicios" style="rounded=0;whiteSpace=wrap;html=1;fillColor=#f5f5f5;strokeColor=#666666;fontColor=#333333;" vertex="1" parent="1">
          <mxGeometry x="-470" y="180" width="180" height="80" as="geometry" />
        </mxCell>
        <mxCell id="tw4gPYHvXtGm7aBOc0MK-32" style="edgeStyle=orthogonalEdgeStyle;rounded=0;orthogonalLoop=1;jettySize=auto;html=1;entryX=-0.031;entryY=0.631;entryDx=0;entryDy=0;entryPerimeter=0;" edge="1" parent="1" source="tw4gPYHvXtGm7aBOc0MK-29" target="tw4gPYHvXtGm7aBOc0MK-28">
          <mxGeometry relative="1" as="geometry" />
        </mxCell>
        <mxCell id="tw4gPYHvXtGm7aBOc0MK-29" value="tiene" style="rhombus;whiteSpace=wrap;html=1;fillColor=#f5f5f5;strokeColor=#666666;fontColor=#333333;" vertex="1" parent="1">
          <mxGeometry x="-610" y="190" width="80" height="80" as="geometry" />
        </mxCell>
        <mxCell id="tw4gPYHvXtGm7aBOc0MK-33" value="horario" style="rounded=0;whiteSpace=wrap;html=1;fillColor=#f5f5f5;strokeColor=#666666;fontColor=#333333;" vertex="1" parent="1">
          <mxGeometry x="-60" y="180" width="180" height="80" as="geometry" />
        </mxCell>
        <mxCell id="tw4gPYHvXtGm7aBOc0MK-36" style="edgeStyle=orthogonalEdgeStyle;rounded=0;orthogonalLoop=1;jettySize=auto;html=1;entryX=0;entryY=0.5;entryDx=0;entryDy=0;" edge="1" parent="1" source="tw4gPYHvXtGm7aBOc0MK-34" target="tw4gPYHvXtGm7aBOc0MK-33">
          <mxGeometry relative="1" as="geometry" />
        </mxCell>
        <mxCell id="tw4gPYHvXtGm7aBOc0MK-34" value="se da" style="rhombus;whiteSpace=wrap;html=1;fillColor=#f5f5f5;strokeColor=#666666;fontColor=#333333;" vertex="1" parent="1">
          <mxGeometry x="-210" y="180" width="80" height="80" as="geometry" />
        </mxCell>
        <mxCell id="tw4gPYHvXtGm7aBOc0MK-40" style="edgeStyle=orthogonalEdgeStyle;rounded=0;orthogonalLoop=1;jettySize=auto;html=1;entryX=1;entryY=0.5;entryDx=0;entryDy=0;" edge="1" parent="1" source="tw4gPYHvXtGm7aBOc0MK-38" target="tw4gPYHvXtGm7aBOc0MK-33">
          <mxGeometry relative="1" as="geometry" />
        </mxCell>
        <mxCell id="tw4gPYHvXtGm7aBOc0MK-38" value="tiene &lt;br&gt;distintos" style="rhombus;whiteSpace=wrap;html=1;fillColor=#f5f5f5;strokeColor=#666666;fontColor=#333333;" vertex="1" parent="1">
          <mxGeometry x="210" y="180" width="80" height="80" as="geometry" />
        </mxCell>
        <mxCell id="tw4gPYHvXtGm7aBOc0MK-46" style="edgeStyle=orthogonalEdgeStyle;rounded=0;orthogonalLoop=1;jettySize=auto;html=1;entryX=0;entryY=0.5;entryDx=0;entryDy=0;" edge="1" parent="1" source="tw4gPYHvXtGm7aBOc0MK-41" target="tw4gPYHvXtGm7aBOc0MK-10">
          <mxGeometry relative="1" as="geometry" />
        </mxCell>
        <mxCell id="tw4gPYHvXtGm7aBOc0MK-41" value="trabaja" style="rhombus;whiteSpace=wrap;html=1;fillColor=#f5f5f5;strokeColor=#666666;fontColor=#333333;" vertex="1" parent="1">
          <mxGeometry x="-200" y="740" width="80" height="80" as="geometry" />
        </mxCell>
        <mxCell id="tw4gPYHvXtGm7aBOc0MK-49" style="edgeStyle=orthogonalEdgeStyle;rounded=0;orthogonalLoop=1;jettySize=auto;html=1;entryX=0.5;entryY=0;entryDx=0;entryDy=0;" edge="1" parent="1" source="tw4gPYHvXtGm7aBOc0MK-47" target="tw4gPYHvXtGm7aBOc0MK-33">
          <mxGeometry relative="1" as="geometry">
            <Array as="points">
              <mxPoint x="330" y="880" />
              <mxPoint x="330" y="160" />
              <mxPoint x="30" y="160" />
            </Array>
          </mxGeometry>
        </mxCell>
        <mxCell id="tw4gPYHvXtGm7aBOc0MK-47" value="tiene" style="rhombus;whiteSpace=wrap;html=1;fillColor=#f5f5f5;strokeColor=#666666;fontColor=#333333;" vertex="1" parent="1">
          <mxGeometry x="-200" y="840" width="80" height="80" as="geometry" />
        </mxCell>
        <mxCell id="tw4gPYHvXtGm7aBOc0MK-53" style="edgeStyle=orthogonalEdgeStyle;rounded=0;orthogonalLoop=1;jettySize=auto;html=1;entryX=0;entryY=0.5;entryDx=0;entryDy=0;" edge="1" parent="1" source="tw4gPYHvXtGm7aBOc0MK-50" target="tw4gPYHvXtGm7aBOc0MK-51">
          <mxGeometry relative="1" as="geometry" />
        </mxCell>
        <mxCell id="tw4gPYHvXtGm7aBOc0MK-50" value="usuario" style="rounded=0;whiteSpace=wrap;html=1;fillColor=#f5f5f5;strokeColor=#666666;fontColor=#333333;" vertex="1" parent="1">
          <mxGeometry x="-410" y="980" width="180" height="80" as="geometry" />
        </mxCell>
        <mxCell id="tw4gPYHvXtGm7aBOc0MK-54" style="edgeStyle=orthogonalEdgeStyle;rounded=0;orthogonalLoop=1;jettySize=auto;html=1;entryX=0;entryY=0.5;entryDx=0;entryDy=0;" edge="1" parent="1" source="tw4gPYHvXtGm7aBOc0MK-51" target="tw4gPYHvXtGm7aBOc0MK-52">
          <mxGeometry relative="1" as="geometry" />
        </mxCell>
        <mxCell id="tw4gPYHvXtGm7aBOc0MK-51" value="trabaja" style="rhombus;whiteSpace=wrap;html=1;fillColor=#f5f5f5;strokeColor=#666666;fontColor=#333333;" vertex="1" parent="1">
          <mxGeometry x="-130" y="980" width="80" height="80" as="geometry" />
        </mxCell>
        <mxCell id="tw4gPYHvXtGm7aBOc0MK-55" style="edgeStyle=orthogonalEdgeStyle;rounded=0;orthogonalLoop=1;jettySize=auto;html=1;entryX=0.45;entryY=1.1;entryDx=0;entryDy=0;entryPerimeter=0;" edge="1" parent="1" source="tw4gPYHvXtGm7aBOc0MK-52" target="tw4gPYHvXtGm7aBOc0MK-10">
          <mxGeometry relative="1" as="geometry">
            <mxPoint x="180" y="840" as="targetPoint" />
          </mxGeometry>
        </mxCell>
        <mxCell id="tw4gPYHvXtGm7aBOc0MK-52" value="usuario_sucursal" style="rounded=0;whiteSpace=wrap;html=1;fillColor=#f5f5f5;strokeColor=#666666;fontColor=#333333;" vertex="1" parent="1">
          <mxGeometry x="90" y="980" width="180" height="80" as="geometry" />
        </mxCell>
        <mxCell id="tw4gPYHvXtGm7aBOc0MK-56" value="1:N" style="text;strokeColor=none;align=center;fillColor=none;html=1;verticalAlign=middle;whiteSpace=wrap;rounded=0;" vertex="1" parent="1">
          <mxGeometry x="20" y="410" width="60" height="30" as="geometry" />
        </mxCell>
        <mxCell id="tw4gPYHvXtGm7aBOc0MK-58" style="edgeStyle=orthogonalEdgeStyle;rounded=0;orthogonalLoop=1;jettySize=auto;html=1;exitX=0.5;exitY=0;exitDx=0;exitDy=0;entryX=0.5;entryY=1;entryDx=0;entryDy=0;" edge="1" parent="1" source="tw4gPYHvXtGm7aBOc0MK-57" target="tw4gPYHvXtGm7aBOc0MK-2">
          <mxGeometry relative="1" as="geometry" />
        </mxCell>
        <mxCell id="tw4gPYHvXtGm7aBOc0MK-57" value="id_clase PK" style="ellipse;whiteSpace=wrap;html=1;fillColor=#f5f5f5;strokeColor=#666666;fontColor=#333333;" vertex="1" parent="1">
          <mxGeometry x="-240" y="670" width="100" height="50" as="geometry" />
        </mxCell>
        <mxCell id="tw4gPYHvXtGm7aBOc0MK-60" style="edgeStyle=orthogonalEdgeStyle;rounded=0;orthogonalLoop=1;jettySize=auto;html=1;exitX=0.5;exitY=0;exitDx=0;exitDy=0;entryX=0.5;entryY=1;entryDx=0;entryDy=0;" edge="1" parent="1" source="tw4gPYHvXtGm7aBOc0MK-59" target="tw4gPYHvXtGm7aBOc0MK-3">
          <mxGeometry relative="1" as="geometry" />
        </mxCell>
        <mxCell id="tw4gPYHvXtGm7aBOc0MK-59" value="id_cliente PK" style="ellipse;whiteSpace=wrap;html=1;fillColor=#f5f5f5;strokeColor=#666666;fontColor=#333333;" vertex="1" parent="1">
          <mxGeometry x="120" y="490" width="100" height="50" as="geometry" />
        </mxCell>
        <mxCell id="tw4gPYHvXtGm7aBOc0MK-62" style="edgeStyle=orthogonalEdgeStyle;rounded=0;orthogonalLoop=1;jettySize=auto;html=1;exitX=0.5;exitY=0;exitDx=0;exitDy=0;entryX=0.5;entryY=1;entryDx=0;entryDy=0;" edge="1" parent="1" source="tw4gPYHvXtGm7aBOc0MK-61" target="tw4gPYHvXtGm7aBOc0MK-33">
          <mxGeometry relative="1" as="geometry" />
        </mxCell>
        <mxCell id="tw4gPYHvXtGm7aBOc0MK-61" value="id_horario PK" style="ellipse;whiteSpace=wrap;html=1;fillColor=#f5f5f5;strokeColor=#666666;fontColor=#333333;" vertex="1" parent="1">
          <mxGeometry x="-20" y="270" width="100" height="50" as="geometry" />
        </mxCell>
        <mxCell id="tw4gPYHvXtGm7aBOc0MK-64" style="edgeStyle=orthogonalEdgeStyle;rounded=0;orthogonalLoop=1;jettySize=auto;html=1;exitX=0.5;exitY=1;exitDx=0;exitDy=0;entryX=0.5;entryY=0;entryDx=0;entryDy=0;" edge="1" parent="1" source="tw4gPYHvXtGm7aBOc0MK-63" target="tw4gPYHvXtGm7aBOc0MK-28">
          <mxGeometry relative="1" as="geometry" />
        </mxCell>
        <mxCell id="tw4gPYHvXtGm7aBOc0MK-63" value="id_ejecrcicio PK" style="ellipse;whiteSpace=wrap;html=1;fillColor=#f5f5f5;strokeColor=#666666;fontColor=#333333;" vertex="1" parent="1">
          <mxGeometry x="-430" y="120" width="100" height="50" as="geometry" />
        </mxCell>
        <mxCell id="tw4gPYHvXtGm7aBOc0MK-66" style="edgeStyle=orthogonalEdgeStyle;rounded=0;orthogonalLoop=1;jettySize=auto;html=1;exitX=0.5;exitY=0;exitDx=0;exitDy=0;entryX=0.175;entryY=0.95;entryDx=0;entryDy=0;entryPerimeter=0;" edge="1" parent="1" source="tw4gPYHvXtGm7aBOc0MK-65" target="tw4gPYHvXtGm7aBOc0MK-5">
          <mxGeometry relative="1" as="geometry" />
        </mxCell>
        <mxCell id="tw4gPYHvXtGm7aBOc0MK-65" value="id_tipoClase PK" style="ellipse;whiteSpace=wrap;html=1;fillColor=#f5f5f5;strokeColor=#666666;fontColor=#333333;" vertex="1" parent="1">
          <mxGeometry x="-680" y="430" width="100" height="50" as="geometry" />
        </mxCell>
        <mxCell id="tw4gPYHvXtGm7aBOc0MK-68" style="edgeStyle=orthogonalEdgeStyle;rounded=0;orthogonalLoop=1;jettySize=auto;html=1;exitX=0.5;exitY=1;exitDx=0;exitDy=0;entryX=0.5;entryY=0;entryDx=0;entryDy=0;" edge="1" parent="1" source="tw4gPYHvXtGm7aBOc0MK-67" target="tw4gPYHvXtGm7aBOc0MK-23">
          <mxGeometry relative="1" as="geometry" />
        </mxCell>
        <mxCell id="tw4gPYHvXtGm7aBOc0MK-67" value="id PK" style="ellipse;whiteSpace=wrap;html=1;fillColor=#f5f5f5;strokeColor=#666666;fontColor=#333333;" vertex="1" parent="1">
          <mxGeometry x="-450" y="430" width="100" height="50" as="geometry" />
        </mxCell>
        <mxCell id="tw4gPYHvXtGm7aBOc0MK-71" style="edgeStyle=orthogonalEdgeStyle;rounded=0;orthogonalLoop=1;jettySize=auto;html=1;exitX=0.5;exitY=1;exitDx=0;exitDy=0;entryX=0.089;entryY=0.05;entryDx=0;entryDy=0;entryPerimeter=0;" edge="1" parent="1" source="tw4gPYHvXtGm7aBOc0MK-69" target="tw4gPYHvXtGm7aBOc0MK-8">
          <mxGeometry relative="1" as="geometry" />
        </mxCell>
        <mxCell id="tw4gPYHvXtGm7aBOc0MK-69" value="id_profesor PK&amp;nbsp;" style="ellipse;whiteSpace=wrap;html=1;fillColor=#f5f5f5;strokeColor=#666666;fontColor=#333333;" vertex="1" parent="1">
          <mxGeometry x="-690" y="600" width="100" height="50" as="geometry" />
        </mxCell>
        <mxCell id="tw4gPYHvXtGm7aBOc0MK-75" style="edgeStyle=orthogonalEdgeStyle;rounded=0;orthogonalLoop=1;jettySize=auto;html=1;exitX=1;exitY=0.5;exitDx=0;exitDy=0;entryX=0.25;entryY=1;entryDx=0;entryDy=0;" edge="1" parent="1" source="tw4gPYHvXtGm7aBOc0MK-74" target="tw4gPYHvXtGm7aBOc0MK-10">
          <mxGeometry relative="1" as="geometry" />
        </mxCell>
        <mxCell id="tw4gPYHvXtGm7aBOc0MK-74" value="id_sucursal PK" style="ellipse;whiteSpace=wrap;html=1;fillColor=#f5f5f5;strokeColor=#666666;fontColor=#333333;" vertex="1" parent="1">
          <mxGeometry x="-20" y="820" width="100" height="50" as="geometry" />
        </mxCell>
        <mxCell id="tw4gPYHvXtGm7aBOc0MK-77" style="edgeStyle=orthogonalEdgeStyle;rounded=0;orthogonalLoop=1;jettySize=auto;html=1;" edge="1" parent="1" source="tw4gPYHvXtGm7aBOc0MK-76">
          <mxGeometry relative="1" as="geometry">
            <mxPoint x="160" y="670" as="targetPoint" />
          </mxGeometry>
        </mxCell>
        <mxCell id="tw4gPYHvXtGm7aBOc0MK-76" value="id PK" style="ellipse;whiteSpace=wrap;html=1;fillColor=#f5f5f5;strokeColor=#666666;fontColor=#333333;" vertex="1" parent="1">
          <mxGeometry x="-20" y="675" width="100" height="50" as="geometry" />
        </mxCell>
        <mxCell id="tw4gPYHvXtGm7aBOc0MK-82" style="edgeStyle=orthogonalEdgeStyle;rounded=0;orthogonalLoop=1;jettySize=auto;html=1;exitX=0.5;exitY=0;exitDx=0;exitDy=0;entryX=0.5;entryY=1;entryDx=0;entryDy=0;" edge="1" parent="1" source="tw4gPYHvXtGm7aBOc0MK-80" target="tw4gPYHvXtGm7aBOc0MK-50">
          <mxGeometry relative="1" as="geometry" />
        </mxCell>
        <mxCell id="tw4gPYHvXtGm7aBOc0MK-80" value="id_usuario" style="ellipse;whiteSpace=wrap;html=1;fillColor=#f5f5f5;strokeColor=#666666;fontColor=#333333;" vertex="1" parent="1">
          <mxGeometry x="-370" y="1080" width="100" height="50" as="geometry" />
        </mxCell>
        <mxCell id="tw4gPYHvXtGm7aBOc0MK-83" style="edgeStyle=orthogonalEdgeStyle;rounded=0;orthogonalLoop=1;jettySize=auto;html=1;exitX=0.5;exitY=0;exitDx=0;exitDy=0;entryX=0.5;entryY=1;entryDx=0;entryDy=0;" edge="1" parent="1" source="tw4gPYHvXtGm7aBOc0MK-81" target="tw4gPYHvXtGm7aBOc0MK-52">
          <mxGeometry relative="1" as="geometry" />
        </mxCell>
        <mxCell id="tw4gPYHvXtGm7aBOc0MK-81" value="id pk" style="ellipse;whiteSpace=wrap;html=1;fillColor=#f5f5f5;strokeColor=#666666;fontColor=#333333;" vertex="1" parent="1">
          <mxGeometry x="130" y="1080" width="100" height="50" as="geometry" />
        </mxCell>
        <mxCell id="tw4gPYHvXtGm7aBOc0MK-84" value="1:N" style="text;strokeColor=none;align=center;fillColor=none;html=1;verticalAlign=middle;whiteSpace=wrap;rounded=0;" vertex="1" parent="1">
          <mxGeometry x="-120" y="190" width="60" height="30" as="geometry" />
        </mxCell>
        <mxCell id="tw4gPYHvXtGm7aBOc0MK-86" value="1:N" style="text;strokeColor=none;align=center;fillColor=none;html=1;verticalAlign=middle;whiteSpace=wrap;rounded=0;" vertex="1" parent="1">
          <mxGeometry x="-540" y="200" width="60" height="30" as="geometry" />
        </mxCell>
        <mxCell id="tw4gPYHvXtGm7aBOc0MK-87" value="N:M" style="text;strokeColor=none;align=center;fillColor=none;html=1;verticalAlign=middle;whiteSpace=wrap;rounded=0;" vertex="1" parent="1">
          <mxGeometry x="-543" y="500" width="60" height="30" as="geometry" />
        </mxCell>
        <mxCell id="tw4gPYHvXtGm7aBOc0MK-88" value="1:1" style="text;strokeColor=none;align=center;fillColor=none;html=1;verticalAlign=middle;whiteSpace=wrap;rounded=0;" vertex="1" parent="1">
          <mxGeometry x="-470" y="660" width="60" height="30" as="geometry" />
        </mxCell>
        <mxCell id="tw4gPYHvXtGm7aBOc0MK-90" value="N:M" style="text;strokeColor=none;align=center;fillColor=none;html=1;verticalAlign=middle;whiteSpace=wrap;rounded=0;" vertex="1" parent="1">
          <mxGeometry x="-60" y="990" width="60" height="30" as="geometry" />
        </mxCell>
        <mxCell id="tw4gPYHvXtGm7aBOc0MK-92" value="N:M" style="text;strokeColor=none;align=center;fillColor=none;html=1;verticalAlign=middle;whiteSpace=wrap;rounded=0;" vertex="1" parent="1">
          <mxGeometry x="40" y="580" width="60" height="30" as="geometry" />
        </mxCell>
        <mxCell id="tw4gPYHvXtGm7aBOc0MK-93" value="1:N" style="text;strokeColor=none;align=center;fillColor=none;html=1;verticalAlign=middle;whiteSpace=wrap;rounded=0;" vertex="1" parent="1">
          <mxGeometry x="50" y="130" width="60" height="30" as="geometry" />
        </mxCell>
        <mxCell id="tw4gPYHvXtGm7aBOc0MK-94" value="Cadena de Gimnasios Cesar Petit" style="text;strokeColor=none;align=center;fillColor=none;html=1;verticalAlign=middle;whiteSpace=wrap;rounded=0;fontSize=50;fontStyle=4;labelBorderColor=none;" vertex="1" parent="1">
          <mxGeometry x="-680" y="20" width="970" height="30" as="geometry" />
        </mxCell>
      </root>
    </mxGraphModel>
  </diagram>
</mxfile>
